<svg width="165" height="72" viewBox="0 0 165 72" fill="none" xmlns="http://www.w3.org/2000/svg">
<path d="M164.948 8H140.948V31.5H137.948V0C123.776 5.59255 122.224 0.0517798 115.948 0V31.5H112.948V0C103.576 2.11828 98.321 2.75334 88.9484 0C91.3861 37.5307 96.8402 48.9906 88.9484 56.5C110.624 50.2116 136.646 43.0532 164.948 56.5C161.454 39.0336 152.236 32.3008 164.948 8Z" fill="black"/>
<path d="M24.2247 5C54.3328 14.8833 64.8681 5.749 84.7247 0C86.8248 16.821 89.4951 26.232 86.2247 28.5H45.2247V31H84.2247C89.2402 31.3069 91.2708 34.9642 86.2247 58C51.4859 55.5316 19.6666 43.8253 0 61.5C5.19139 42.5376 3.7525 31.9258 0.724728 13C8.88283 15.776 12.6025 16.4041 21.7247 13V38.5H60.2247V36H24.2247V5Z" fill="black"/>
<path d="M129.5 60.0259C126.983 56.8862 127.204 55.1259 129.5 51.9863C143.5 51.9863 147.5 52 165 59.5395L129.5 60.0259Z" fill="black"/>
<path d="M126.5 60.0663C124.081 56.9269 124.277 55.1666 126.5 52.0268C119.58 52.255 108.468 53.1553 88.5 58.4999L126.5 60.0663Z" fill="black"/>
<path d="M32 54.5C63.7247 56.4989 93.6276 64.4054 164 62.0003C164 62.0003 156.5 74.4993 127.5 70.4993C110.346 68.1332 69.9542 63.1094 39 62.0003C17.6234 61.2343 0.224731 64.0004 0.224731 64.0004C0.224731 64.0004 8.54311 53.022 32 54.5Z" fill="black"/>
<path d="M164.948 8H140.948V31.5H137.948V0C123.776 5.59255 122.224 0.0517798 115.948 0V31.5H112.948V0C103.576 2.11828 98.321 2.75334 88.9484 0C91.3861 37.5307 96.8402 48.9906 88.9484 56.5C110.624 50.2116 136.646 43.0532 164.948 56.5C161.454 39.0336 152.236 32.3008 164.948 8Z" stroke="black"/>
<path d="M24.2247 5C54.3328 14.8833 64.8681 5.749 84.7247 0C86.8248 16.821 89.4951 26.232 86.2247 28.5H45.2247V31H84.2247C89.2402 31.3069 91.2708 34.9642 86.2247 58C51.4859 55.5316 19.6666 43.8253 0 61.5C5.19139 42.5376 3.7525 31.9258 0.724728 13C8.88283 15.776 12.6025 16.4041 21.7247 13V38.5H60.2247V36H24.2247V5Z" stroke="black"/>
<path d="M129.5 60.0259C126.983 56.8862 127.204 55.1259 129.5 51.9863C143.5 51.9863 147.5 52 165 59.5395L129.5 60.0259Z" stroke="black"/>
<path d="M126.5 60.0663C124.081 56.9269 124.277 55.1666 126.5 52.0268C119.58 52.255 108.468 53.1553 88.5 58.4999L126.5 60.0663Z" stroke="black"/>
<path d="M32 54.5C63.7247 56.4989 93.6276 64.4054 164 62.0003C164 62.0003 156.5 74.4993 127.5 70.4993C110.346 68.1332 69.9542 63.1094 39 62.0003C17.6234 61.2343 0.224731 64.0004 0.224731 64.0004C0.224731 64.0004 8.54311 53.022 32 54.5Z" stroke="black"/>
</svg>
