<svg width="237" height="237" viewBox="0 0 237 237" fill="none" xmlns="http://www.w3.org/2000/svg">
<rect x="4" y="4" width="229" height="229" rx="27" stroke="black" stroke-width="8"/>
<path d="M196.649 77.6923V47H203V77.6923H196.649Z" fill="black"/>
<path d="M184.526 61.1657V47H176.443V55.108H144.691V47H136.608V71.7899H118.134V77.6923H144.691V61.1657H184.526Z" fill="black"/>
<path d="M96.7732 47H103.124V77.6923H96.7732V47Z" fill="black"/>
<path d="M82.3402 77.6923V47H74.8351V71.7899H41.9278V47H35V77.6923H82.3402Z" fill="black"/>
<path d="M196.649 77.6923V47H203V77.6923H196.649Z" stroke="black" stroke-width="3"/>
<path d="M184.526 61.1657V47H176.443V55.108H144.691V47H136.608V71.7899H118.134V77.6923H144.691V61.1657H184.526Z" stroke="black" stroke-width="3"/>
<path d="M96.7732 47H103.124V77.6923H96.7732V47Z" stroke="black" stroke-width="3"/>
<path d="M82.3402 77.6923V47H74.8351V71.7899H41.9278V47H35V77.6923H82.3402Z" stroke="black" stroke-width="3"/>
<circle cx="162" cy="75" r="4.5" fill="black" stroke="black" stroke-width="3"/>
<circle cx="58.5" cy="52.5" r="4" fill="black" stroke="black" stroke-width="3"/>
<circle cx="177" cy="75" r="4.5" fill="black" stroke="black" stroke-width="3"/>
<path d="M130.5 111.5C150.33 111.5 166.5 127.789 166.5 148C166.5 168.211 150.33 184.5 130.5 184.5C110.67 184.5 94.5 168.211 94.5 148C94.5 127.789 110.67 111.5 130.5 111.5Z" stroke="black" stroke-width="9"/>
<rect x="98.0761" y="161" width="9.83519" height="51.5325" transform="rotate(61.0111 98.0761 161)" fill="black"/>
</svg>
