<svg width="681" height="139" viewBox="0 0 681 139" fill="none" xmlns="http://www.w3.org/2000/svg">
<path d="M654.517 125.083V1H680.19V125.083H654.517Z" fill="black"/>
<path d="M605.503 58.269V1H572.827V33.779H444.458V1H411.782V101.221H337.094V125.083H444.458V58.269H605.503Z" fill="black"/>
<path d="M250.737 1H276.411V125.083H250.737V1Z" fill="black"/>
<path d="M192.387 125.083V1H162.045V101.221H29.0079V1H1V125.083H192.387Z" fill="black"/>
<path d="M654.517 125.083V1H680.19V125.083H654.517Z" stroke="black"/>
<path d="M605.503 58.269V1H572.827V33.779H444.458V1H411.782V101.221H337.094V125.083H444.458V58.269H605.503Z" stroke="black"/>
<path d="M250.737 1H276.411V125.083H250.737V1Z" stroke="black"/>
<path d="M192.387 125.083V1H162.045V101.221H29.0079V1H1V125.083H192.387Z" stroke="black"/>
<circle cx="516.924" cy="118.552" r="19.592" fill="black"/>
<circle cx="85.8989" cy="20.592" r="19.592" fill="black"/>
<circle cx="569.169" cy="118.552" r="19.592" fill="black"/>
</svg>
